<svg id="Layer_1" data-name="Layer 1" xmlns="http://www.w3.org/2000/svg" viewBox="0 0 558.59 121.62"><defs><style>.cls-1{fill:#f5821f;}</style></defs><path class="cls-1" d="M161.24,360.31l-26.66-12.4c-10.05-4.68-20.14-9.28-30.08-14.17-1-.52-2-2.87-1.75-4.18,1.21-7.23,2.91-14.39,4.15-21.62a5.45,5.45,0,0,0-1.34-4.37c-6-5.23-12.24-10.25-18.5-15.19a12.88,12.88,0,0,0-4.72-2.21c-11.83-3-23.7-5.92-35.54-8.9-8.57-2.15-17.12-4.38-25.68-6.6-.54-.14-1-.46-1.46-1.47H47.59q43.68,0,87.35,0c4.45,0,8.49-.58,12.4-3.18,6.54-4.34,13.38-8.24,20.23-12.07,3.26-1.83,3.15-3.65,1.09-6.23a45.82,45.82,0,0,1-5.81-9l35.08,19.81-.1.91c-3.93.68-7.85,1.4-11.78,2a23.91,23.91,0,0,1-5.85.65c-4.6-.42-7.39,2.26-10.12,5.27-6.7,7.4-13.49,14.73-20.08,22.22a10.09,10.09,0,0,0-2,4.9c-.52,3.13-.62,6.33-.9,9.53-.34-.08-.69-.05-.79-.2-3.79-5.76-3.85-5.82-8.66-.7-5.9,6.27-11.69,12.65-17.52,19-3,3.29-2.94,4,.68,6.74l37.66,29C159.21,358.41,159.89,359.1,161.24,360.31Z" transform="translate(-19.66 -238.69)"/><path d="M252.81,295.53c-6.95-1.71-13.34-4-19.89-4.7a29,29,0,0,0-22.66,6.76c-11.14,9.58-8.53,26,5.11,31.7,11.73,5,23.32,4.37,34.63-1.55a22.92,22.92,0,0,1,2.77-1c0,6,0,11.55-.08,17.12a2.76,2.76,0,0,1-1.61,2c-22.89,5.64-44.59,3.77-63-12.31-13.27-11.6-12.87-30.86-.08-43.51,10.08-10,22.7-14.59,36.41-15.36,8.34-.46,16.82,1.27,25.2,2.29,1.16.14,3,1.82,3,2.88C253,285.24,252.81,290.6,252.81,295.53Z" transform="translate(-19.66 -238.69)"/><path d="M576.79,351.23l-47.47-44.45a36.2,36.2,0,0,0-.45,3.65c0,7.12-.15,14.24,0,21.36.09,3.16-1.06,4.19-4.11,4-3.48-.2-7-.06-10.49,0-1.85,0-3.12-.44-3.12-2.7q0-29.77,0-59.56c0-.31.35-.62.88-1.49l47.82,44.69c.14-2.38.27-3.67.27-4.95,0-6.87.11-13.74,0-20.61-.06-2.66.58-3.91,3.52-3.72,3.61.23,7.24.11,10.86,0,2,0,3,.7,3,2.81q-.07,29.6-.1,59.19A8.45,8.45,0,0,1,576.79,351.23Z" transform="translate(-19.66 -238.69)"/><path d="M290.81,337.34c-7.59-.27-17.37-2.37-25.32-9.54-11.43-10.32-10.47-25.28,2.07-34.22,14.86-10.6,40.05-10.17,54.33.93,12.23,9.5,12,25-.47,34.67C314.37,334.65,305,337.41,290.81,337.34Zm4.51-40c-4.81,1.4-9.06,2.09-12.81,3.84-7.07,3.28-8.72,11.15-4.06,17.25,6.63,8.7,25.27,8.62,31.72-.13,4.06-5.52,3.48-11.79-2.29-15.56C304.06,300.25,302.71,299,295.32,297.33Z" transform="translate(-19.66 -238.69)"/><path d="M374.3,316.3l18.34,19.48c-3.3,0-6.59,0-9.88,0-10.65.13-10.63.13-17.52-8-2.56-3-5.23-6-7.85-8.93l-1.33.19c0,2.84.05,5.69,0,8.53-.16,8.8,1.76,8.25-8.09,8.18-9.44-.06-9.44-.05-9.44-9.4,0-11.61.07-23.22-.08-34.83,0-3,.71-4.24,3.93-4.17,7.86.19,15.74-.23,23.59.2a52,52,0,0,1,12.68,2.64,12,12,0,0,1,8.85,11.75c.14,5.75-3.06,9.85-8.23,12.32C377.83,315,376.31,315.48,374.3,316.3Zm-18.28-13c.48,2.35-1.4,5.88,3.53,5.7,6-.23,9.83-2.29,9.85-5.82,0-3.72-3.28-5.48-9.74-5.77C354.42,297.18,356.61,301,356,303.31Z" transform="translate(-19.66 -238.69)"/><path d="M442.77,287.33c2.4,0,12.88.07,16.46.07L424.72,346l-1.34.08c-11.12-19.23-22.25-38.45-33.91-58.59,6.69,0,12.14-.11,17.57.11.88,0,2,1.34,2.5,2.31,4.43,7.94,15,26.22,15,26.22h0" transform="translate(-19.66 -238.69)"/><path d="M463.31,311.32c0-6.74.1-13.49-.05-20.23-.06-2.69.65-3.77,3.55-3.73,10.11.15,20.23.17,30.34,0,3.08-.05,3.86,1.08,3.75,3.92-.31,8.12.78,6.88-7,7-3.25.05-6.51.16-9.74,0s-3.61,1.53-3.66,4.16.53,3.92,3.5,3.77c4.24-.22,8.49,0,12.74-.08,2.28-.05,3.44.6,3.39,3.18-.19,8.55,1,7.48-7.25,7.54-2.87,0-5.75.16-8.61,0-3.49-.23-3.75,1.79-3.8,4.48s.84,3.84,3.67,3.73c4.49-.18,9,0,13.48-.09,2.47-.07,3.34.92,3.29,3.3-.21,9.08.78,7.51-7.17,7.57-8.86.07-17.73-.09-26.59.06-2.95,0-3.92-.95-3.85-3.89C463.43,325.06,463.31,318.19,463.31,311.32Z" transform="translate(-19.66 -238.69)"/><path d="M568.86,283c-5.27,0-8.91-3.6-9-8.91a9.25,9.25,0,0,1,9-9.18c4.66-.07,9.3,4.34,9.39,8.93A9.28,9.28,0,0,1,568.86,283Zm5-4.58c2.88-4.09,2.55-6.73-.57-9.49-2.94-2.61-6.25-2.43-9.33.51a6.83,6.83,0,0,0-.4,8.91,6.34,6.34,0,0,0,8.58,1.37l-3.34-4.15c-.89,1.08-1.64,2-2.4,2.91l-.84-.36v-8.42c1-.12,1.7-.28,2.43-.3,4.49-.15,4.91.48,4.35,4.9C572.21,275.39,573.18,276.63,573.87,278.4Z" transform="translate(-19.66 -238.69)"/></svg>