<svg id="Layer_1" data-name="Layer 1" xmlns="http://www.w3.org/2000/svg" viewBox="0 0 623.6 112.54"><defs><style>.cls-1{fill:#203c79;}.cls-2{fill:#e61555;}</style></defs><path class="cls-1" d="M72.4,304v-19.3H40.1v-3.8c0-12.8,7.9-18.5,33.4-15.5v-18.7c-36.4-4.7-53.6,8.5-53.6,33v76.8H40.1v-52.3H72.4Zm424.2-32.3h20.1v-19.6H496.5v19.6Zm96.5,84.6H612v-71.6H593.1v7.4c-6-6.4-14-9.4-23-9.4-21.3,0-36.8,15.3-36.8,37.8s15.3,37.6,36.8,37.6c8.9,0,17-3,23-9.6Zm-452.3,0h18.9v-71.6H140.8v6.8c-5.5-6-13-8.7-23-8.7-21.3,0-36.8,15.3-36.8,37.8s15.3,37.6,36.8,37.6c9.8,0,17.4-2.8,23-8.7Zm314.1-54.8a24.73,24.73,0,0,1,15.5,4.9l8.7-15.3c-6.6-5.3-14.9-8.1-25.9-8.1-21.1,0-38.5,14-38.5,37.6s17,37.6,39.5,37.6c11.3,0,19.1-2.6,25.7-8.5L471,335c-4.3,3.2-8.3,5.3-15.5,5.3-11.7,0-20.4-7.4-20.4-19.3,0-12.3,8.7-19.5,19.8-19.5m-56.6,47.8-8.5-14.5c-5.1,3.8-10.8,6.4-20,6.4-8.5,0-15.5-2.8-19.3-8.5L400.3,317c-1.9-21.9-14.2-34-34.7-34-21.9,0-36.8,15.1-36.8,37.4,0,23.2,16.4,37.8,41,37.8,12.4,0,21.9-3.2,28.5-8.9m-126.7-33.4v40.4h20.2v-38.9c0-11.3,6.2-15.7,24.9-15.1v-18.7c-31.7-2.3-45.1,9.6-45.1,32.3m225,40.4h20.1v-71.6H496.5v71.6ZM252,323.36v-38.7H231.8v36.4c0,11.1-4,18.9-15.5,18.9s-15.5-7.9-15.5-18.9v-36.4H180.6v38.7c0,20.4,12.1,34.9,35.7,34.9s35.7-14.5,35.7-34.9m113.4-23.6c7.7,0,11.5,3.4,13.2,7.4l-31.3,10.6c.2-11,7.2-18,18.1-18m188.6,21c0-13.2,7.9-20.6,19.1-20.6A19.41,19.41,0,0,1,592.9,320c0,13-8.9,21-19.8,21-11.3,0-19.1-8.5-19.1-20.2m-452.3,0c0-13.2,7.9-20.6,19.1-20.6,10.8,0,19.8,8.1,19.8,19.6,0,13.2-8.9,21.3-19.8,21.3-11.2-.1-19.1-8.6-19.1-20.3" transform="translate(11.6 -245.72)"/><rect class="cls-2" y="38.94" width="18.5" height="19.3"/></svg>