<svg id="Layer_1" data-name="Layer 1" xmlns="http://www.w3.org/2000/svg" viewBox="0 0 193.85 58.54"><defs><style>.cls-1{fill:#fff;}.cls-2{fill:#005183;}.cls-3{fill:#3691c8;}</style></defs><path class="cls-1" d="M105.4,23.2v-.3a7.24,7.24,0,0,0-.9-3.7,3.28,3.28,0,0,0-3.1-1.5,3.25,3.25,0,0,0-3.2,2.1,13.82,13.82,0,0,0-1,6c0,2.6.4,4.6,1.3,5.8a4.18,4.18,0,0,0,3.7,1.9c1.6,0,3.5-.8,5.8-2.4a10.61,10.61,0,0,1,1.5,1.5,5,5,0,0,1,.9,1.8,12.57,12.57,0,0,1-4.1,2.6,12.82,12.82,0,0,1-4.9,1.1,9.55,9.55,0,0,1-4-.7,7.72,7.72,0,0,1-2.7-1.9A8.75,8.75,0,0,1,93,32.7a16.66,16.66,0,0,1-1.3-6.9c0-4.1.9-7.2,2.8-9.3a9,9,0,0,1,7-3.1,10.19,10.19,0,0,1,6.6,2,6.39,6.39,0,0,1,2.4,5.1c0,1.9-1,2.9-3,2.9A5,5,0,0,1,105.4,23.2Z" transform="translate(-5.15 -3.46)"/><path class="cls-1" d="M119.6,32.5h-1.4l-1.5,5.1a12.14,12.14,0,0,1-2.3.2,5.46,5.46,0,0,1-2.4-.4l-.2-.3,7.7-23.2a25.42,25.42,0,0,1,3.1-.2,23.64,23.64,0,0,1,3,.2l7.5,23.2a6,6,0,0,1-2.7.7,3.52,3.52,0,0,1-2.3-.6,4.47,4.47,0,0,1-1.1-2.3l-.7-2.5h-1.5l-5.2.1Zm-.3-4.1h5.4l-2.6-9.5h-.2c-.2,1.1-.8,3.2-1.7,6.3Z" transform="translate(-5.15 -3.46)"/><path class="cls-1" d="M154.2,13.8l.2.2V37.5a14.16,14.16,0,0,1-3.1.3,30.48,30.48,0,0,1-3.2-.2L142.4,25c-1-2.3-1.6-3.9-2-4.9h-.1c.3,3.3.4,6.6.4,10v7.4a16.86,16.86,0,0,1-2.5.2,14.36,14.36,0,0,1-2.4-.2V14a12.62,12.62,0,0,1,3-.3,30.48,30.48,0,0,1,3.2.2l5.6,12.6,2.2,5.2h.1c-.3-3.2-.4-6.5-.4-10V16.9a3.14,3.14,0,0,1,.7-2.4,2.92,2.92,0,0,1,2.2-.7Z" transform="translate(-5.15 -3.46)"/><path class="cls-1" d="M177.9,19.8a21.26,21.26,0,0,1,.8,6,21.26,21.26,0,0,1-.8,6,8.69,8.69,0,0,1-3.1,4.3,7.09,7.09,0,0,1-2.9,1.3,16.11,16.11,0,0,1-3.9.4c-1.4,0-4.1,0-8.1-.1l-.2-.2V14.3l.2-.2c2.6-.1,5.5-.1,8.5-.1a13.69,13.69,0,0,1,3.4.4,7.09,7.09,0,0,1,2.9,1.3A7.52,7.52,0,0,1,177.9,19.8Zm-12,13.9h2.7c3.2,0,4.7-2.6,4.7-7.9s-1.6-7.9-4.7-7.9h-3.5V33.7Z" transform="translate(-5.15 -3.46)"/><path class="cls-1" d="M180.7,35.5a6.26,6.26,0,0,1,.7-2.2,6.07,6.07,0,0,1,1.4-1.7,13.76,13.76,0,0,0,7,2.3,3.33,3.33,0,0,0,2.3-.7,2.29,2.29,0,0,0,.8-1.7c0-1.2-.8-2.1-2.3-2.8L186.5,27c-3.3-1.4-4.9-3.5-4.9-6.3a6.26,6.26,0,0,1,2.4-5.1,9.7,9.7,0,0,1,6.3-2,17,17,0,0,1,7.7,2,6,6,0,0,1-1.8,4,14.89,14.89,0,0,0-6.2-1.7,3.07,3.07,0,0,0-2.2.7,2.06,2.06,0,0,0-.8,1.5c0,.9.7,1.7,2.1,2.3l4.1,1.7a9.43,9.43,0,0,1,3.8,2.8,6.49,6.49,0,0,1,1.4,4,6.74,6.74,0,0,1-2.3,5.3c-1.6,1.4-3.8,2-6.7,2a15,15,0,0,1-4.5-.7A16.35,16.35,0,0,1,180.7,35.5Z" transform="translate(-5.15 -3.46)"/><path class="cls-1" d="M198.3,47H91.6a.7.7,0,0,1,0-1.4H198.3a.7.7,0,0,1,0,1.4Z" transform="translate(-5.15 -3.46)"/><path class="cls-1" d="M96.9,59.3a3.81,3.81,0,0,1-1.9.4,3.19,3.19,0,0,1-1.4-.3,2.55,2.55,0,0,1-1-.7,4.13,4.13,0,0,1-.7-1.1,3.18,3.18,0,0,1-.2-1.4,7.72,7.72,0,0,1,.2-1.5,3.46,3.46,0,0,1,.7-1.2,4.44,4.44,0,0,1,1.1-.8,3.34,3.34,0,0,1,1.5-.3,4.15,4.15,0,0,1,1.6.3v.7a2.93,2.93,0,0,0-1.6-.4,3.73,3.73,0,0,0-1.2.2,2.18,2.18,0,0,0-.9.7,8.79,8.79,0,0,0-.6,1,5.07,5.07,0,0,0-.2,1.3,3.59,3.59,0,0,0,.2,1.1,1.93,1.93,0,0,0,.5.9,1.56,1.56,0,0,0,.8.6A2.17,2.17,0,0,0,95,59a3.42,3.42,0,0,0,1.8-.4l.1.7Z" transform="translate(-5.15 -3.46)"/><path class="cls-1" d="M101.1,59.7a3,3,0,0,1-1-.2,3.51,3.51,0,0,1-.8-.5,2.18,2.18,0,0,1-.5-.8,3.12,3.12,0,0,1,0-2.2,2.1,2.1,0,0,1,1.3-1.3,3.55,3.55,0,0,1,1-.2,3,3,0,0,1,1,.2,1.79,1.79,0,0,1,.7.5,2.18,2.18,0,0,1,.5.8,3.13,3.13,0,0,1,0,2.2,2.1,2.1,0,0,1-1.3,1.3A2,2,0,0,1,101.1,59.7Zm0-4.7a1.48,1.48,0,0,0-.7.1,2.09,2.09,0,0,0-.6.4,1.61,1.61,0,0,0-.4.7,4.1,4.1,0,0,0,0,1.8.92.92,0,0,0,.4.6,1.27,1.27,0,0,0,.6.4,1.7,1.7,0,0,0,.7.1,1.48,1.48,0,0,0,.7-.1,2.09,2.09,0,0,0,.6-.4.91.91,0,0,0,.3-.7,2.77,2.77,0,0,0,.1-.9,2.54,2.54,0,0,0-.5-1.6A1.69,1.69,0,0,0,101.1,55Z" transform="translate(-5.15 -3.46)"/><path class="cls-1" d="M111.8,59.6v-3a2,2,0,0,0-.1-.8.76.76,0,0,0-.2-.5,1.38,1.38,0,0,0-.4-.3,1.3,1.3,0,0,0-1,0,.78.78,0,0,0-.4.4c-.1.2-.2.3-.3.5a1.48,1.48,0,0,0-.1.7v2.9h-.6v-3c0-1.1-.4-1.6-1.2-1.6a.75.75,0,0,0-.5.1.78.78,0,0,0-.4.4c-.1.2-.2.3-.3.5a1.48,1.48,0,0,0-.1.7v2.9h-.6v-5h.6v.8h0a1.76,1.76,0,0,1,1.5-.9.9.9,0,0,1,.5.1c.2.1.3.1.4.2l.3.3a.76.76,0,0,1,.2.4,1.85,1.85,0,0,1,.7-.8,1.69,1.69,0,0,1,1-.3c1.1,0,1.7.7,1.7,2v3.1h-.7v.2Z" transform="translate(-5.15 -3.46)"/><path class="cls-1" d="M115.3,58.8v3.1h-.6V54.6h.6v1h0a1.85,1.85,0,0,1,.7-.8,2,2,0,0,1,1.1-.3,2.92,2.92,0,0,1,.9.2,1,1,0,0,1,.6.5,2,2,0,0,1,.4.8,3.08,3.08,0,0,1,.1,1,3.59,3.59,0,0,1-.2,1.1,4.05,4.05,0,0,1-.5.9,4.35,4.35,0,0,1-.7.6,2.92,2.92,0,0,1-.9.2,2.15,2.15,0,0,1-1.5-1Zm0-1.3a1.27,1.27,0,0,0,.1.6,2.19,2.19,0,0,0,.3.5,1,1,0,0,0,.5.4,1.27,1.27,0,0,0,.6.1,1.45,1.45,0,0,0,.7-.2,1.21,1.21,0,0,0,.5-.5,1.49,1.49,0,0,0,.3-.7,2.77,2.77,0,0,0,.1-.9,2,2,0,0,0-.1-.8l-.3-.6a1,1,0,0,0-.5-.4,1.27,1.27,0,0,0-.6-.1,1.48,1.48,0,0,0-.7.1,1,1,0,0,0-.5.4c-.1.2-.3.4-.3.6a1.7,1.7,0,0,0-.1.7Z" transform="translate(-5.15 -3.46)"/><path class="cls-1" d="M121.1,59.6V52.1h.6v7.5Z" transform="translate(-5.15 -3.46)"/><path class="cls-1" d="M124.4,57.2a2,2,0,0,0,.1.8,3.33,3.33,0,0,0,.3.6,1,1,0,0,0,.5.4,1.48,1.48,0,0,0,.7.1,2.45,2.45,0,0,0,1.6-.6v.6a3.45,3.45,0,0,1-1.8.5,2.92,2.92,0,0,1-.9-.2,1.79,1.79,0,0,1-.7-.5,2,2,0,0,1-.4-.8,3.59,3.59,0,0,1-.2-1.1,3,3,0,0,1,.2-1,2.18,2.18,0,0,1,.5-.8,4.35,4.35,0,0,1,.7-.6,2.12,2.12,0,0,1,1.8,0,1.47,1.47,0,0,1,.6.5,2,2,0,0,1,.4.8,3.08,3.08,0,0,1,.1,1v.3Zm3-.6a1.59,1.59,0,0,0-.4-1.2,1.16,1.16,0,0,0-1-.4,1.27,1.27,0,0,0-.6.1c-.2.1-.3.2-.5.3a.85.85,0,0,0-.3.5,1.45,1.45,0,0,0-.2.7Z" transform="translate(-5.15 -3.46)"/><path class="cls-1" d="M131.8,57.1l1.7,2.5h-.8l-1-1.7c0-.1-.1-.1-.1-.2s-.1-.1-.1-.2h0a.1.1,0,0,1-.1.1c0,.1-.1.1-.1.2l-1.1,1.7h-.7l1.7-2.5-1.6-2.6h.7l1,1.8a.31.31,0,0,1,.1.2c0,.1.1.1.1.2h0c0-.1.1-.1.1-.2s.1-.1.1-.2l1.1-1.8h.7Z" transform="translate(-5.15 -3.46)"/><path class="cls-1" d="M135.4,53.3a.4.4,0,1,1,0-.8h.2a.1.1,0,0,1,.1.1l.1.1v.4a.1.1,0,0,1-.1.1l-.1.1Zm-.3,6.3v-5h.6v5Z" transform="translate(-5.15 -3.46)"/><path class="cls-1" d="M140.2,59.5a1.85,1.85,0,0,1-.7.2c-.8,0-1.2-.5-1.2-1.4V55.1h-.9v-.6h.9V53.2l.6-.2v1.5h1.3v.6h-1.3v3.1a1.17,1.17,0,0,0,.2.7c.1.2.3.2.6.2a1.42,1.42,0,0,0,.6-.2v.6Z" transform="translate(-5.15 -3.46)"/><path class="cls-1" d="M143.4,60.5a2.33,2.33,0,0,1-.7,1.1,1.8,1.8,0,0,1-.9.4.9.9,0,0,1-.5-.1v-.6c.1,0,.1,0,.2.1h.2a.76.76,0,0,0,.5-.2.92.92,0,0,0,.4-.6l.4-1-1.9-5h.7l1.4,4c0,.1,0,.1.1.2s0,.1.1.2h0v-.2c0-.1,0-.1.1-.2l1.5-4h.7Z" transform="translate(-5.15 -3.46)"/><path class="cls-1" d="M150.6,58.7c.1.1.2.1.3.2s.2.1.3.2.2.1.4.1h.3c.7,0,1.1-.3,1.1-.8a.37.37,0,0,0-.1-.3c-.1-.1-.1-.2-.2-.3s-.2-.1-.4-.2-.3-.1-.5-.2l-.6-.3a1.38,1.38,0,0,1-.4-.3.52.52,0,0,1-.2-.4.75.75,0,0,1-.1-.5,1.27,1.27,0,0,1,.1-.6.78.78,0,0,1,.4-.4l.6-.3a1.48,1.48,0,0,1,.7-.1,3.59,3.59,0,0,1,1.1.2v.7a2.84,2.84,0,0,0-1.2-.4c-.2,0-.3,0-.4.1s-.2.1-.3.2-.2.2-.2.3a.5.5,0,0,0,0,.6c0,.1.1.2.2.3s.2.1.3.2.3.1.5.2a3.33,3.33,0,0,1,.6.3,1.77,1.77,0,0,1,.7.7.75.75,0,0,1,.1.5,1.27,1.27,0,0,1-.1.6.78.78,0,0,1-.4.4l-.6.3a1.7,1.7,0,0,1-.7.1,2.77,2.77,0,0,1-1.3-.3v-.8Z" transform="translate(-5.15 -3.46)"/><path class="cls-1" d="M156,53.3a.4.4,0,1,1,0-.8h.2a.1.1,0,0,1,.1.1l.1.1v.4a.1.1,0,0,1-.1.1l-.1.1Zm-.3,6.3v-5h.6v5Z" transform="translate(-5.15 -3.46)"/><path class="cls-1" d="M164.9,59.6v-3a2,2,0,0,0-.1-.8.76.76,0,0,0-.2-.5,1.38,1.38,0,0,0-.4-.3.9.9,0,0,0-.5-.1.75.75,0,0,0-.5.1c-.1.1-.3.2-.4.4s-.2.3-.3.5a1.48,1.48,0,0,0-.1.7v2.9h-.6v-3c0-1.1-.4-1.6-1.2-1.6a.75.75,0,0,0-.5.1.78.78,0,0,0-.4.4c-.1.2-.2.3-.3.5a1.48,1.48,0,0,0-.1.7v2.9h-.6v-5h.6v.8h0a1.76,1.76,0,0,1,1.5-.9.9.9,0,0,1,.5.1c.2.1.3.1.4.2l.3.3a.76.76,0,0,1,.2.4,1.85,1.85,0,0,1,.7-.8,1.69,1.69,0,0,1,1-.3c1.1,0,1.7.7,1.7,2v3.1h-.7v.2Z" transform="translate(-5.15 -3.46)"/><path class="cls-1" d="M168.4,58.8v3.1h-.6V54.6h.6v1h0a1.85,1.85,0,0,1,.7-.8,2,2,0,0,1,1.1-.3,2.92,2.92,0,0,1,.9.2,1,1,0,0,1,.6.5,2,2,0,0,1,.4.8,3.08,3.08,0,0,1,.1,1,3.59,3.59,0,0,1-.2,1.1,4.05,4.05,0,0,1-.5.9,4.35,4.35,0,0,1-.7.6,2.92,2.92,0,0,1-.9.2,2.15,2.15,0,0,1-1.5-1Zm0-1.3a1.27,1.27,0,0,0,.1.6,2.19,2.19,0,0,0,.3.5,1,1,0,0,0,.5.4,1.27,1.27,0,0,0,.6.1,1.45,1.45,0,0,0,.7-.2,1.21,1.21,0,0,0,.5-.5,1.49,1.49,0,0,0,.3-.7,2.77,2.77,0,0,0,.1-.9,2,2,0,0,0-.1-.8l-.3-.6a1,1,0,0,0-.5-.4,1.27,1.27,0,0,0-.6-.1,1.48,1.48,0,0,0-.7.1,1,1,0,0,0-.5.4c-.1.2-.3.4-.3.6a1.7,1.7,0,0,0-.1.7Z" transform="translate(-5.15 -3.46)"/><path class="cls-1" d="M174.3,59.6V52.1h.6v7.5Z" transform="translate(-5.15 -3.46)"/><path class="cls-1" d="M177.5,53.3a.4.4,0,1,1,0-.8h.2a.1.1,0,0,1,.1.1l.1.1v.4a.1.1,0,0,1-.1.1l-.1.1Zm-.3,6.3v-5h.6v5Z" transform="translate(-5.15 -3.46)"/><path class="cls-1" d="M182.5,52.7a.75.75,0,0,0-.5-.1q-.9,0-.9,1.2v.8h1.3v.6h-1.3v4.5h-.6V55.2h-.9v-.6h.9v-.8a1.48,1.48,0,0,1,.1-.7,2.19,2.19,0,0,1,.3-.5.85.85,0,0,1,.5-.3,1.48,1.48,0,0,1,.7-.1,1.27,1.27,0,0,1,.6.1v.4Z" transform="translate(-5.15 -3.46)"/><path class="cls-1" d="M184.2,53.3a.4.4,0,1,1,0-.8h.2a.1.1,0,0,1,.1.1l.1.1v.4a.1.1,0,0,1-.1.1l-.1.1Zm-.4,6.3v-5h.6v5Z" transform="translate(-5.15 -3.46)"/><path class="cls-1" d="M187.1,57.2a2,2,0,0,0,.1.8,3.33,3.33,0,0,0,.3.6,1,1,0,0,0,.5.4,1.48,1.48,0,0,0,.7.1,2.45,2.45,0,0,0,1.6-.6v.6a3.45,3.45,0,0,1-1.8.5,2.92,2.92,0,0,1-.9-.2,1.79,1.79,0,0,1-.7-.5,2,2,0,0,1-.4-.8,3.59,3.59,0,0,1-.2-1.1,3,3,0,0,1,.2-1,2.18,2.18,0,0,1,.5-.8,4.35,4.35,0,0,1,.7-.6,2.12,2.12,0,0,1,1.8,0,1.47,1.47,0,0,1,.6.5,2,2,0,0,1,.4.8,3.08,3.08,0,0,1,.1,1v.3Zm3-.6a1.59,1.59,0,0,0-.4-1.2,1.16,1.16,0,0,0-1-.4,1.27,1.27,0,0,0-.6.1c-.2.1-.3.2-.5.3a.85.85,0,0,0-.3.5,1.45,1.45,0,0,0-.2.7Z" transform="translate(-5.15 -3.46)"/><path class="cls-1" d="M196.2,59.6v-.9h0a1.58,1.58,0,0,1-.7.7,2,2,0,0,1-1.1.3,2.92,2.92,0,0,1-.9-.2,1.79,1.79,0,0,1-.7-.5,2,2,0,0,1-.4-.8,3.75,3.75,0,0,1-.1-1.1,3.59,3.59,0,0,1,.2-1.1,4.05,4.05,0,0,1,.5-.9,4.35,4.35,0,0,1,.7-.6,2.92,2.92,0,0,1,.9-.2,1.8,1.8,0,0,1,1.6.9h0V52h.6v7.5h-.6Zm0-3a1.27,1.27,0,0,0-.1-.6,2.19,2.19,0,0,0-.3-.5.85.85,0,0,0-.5-.3,1.27,1.27,0,0,0-.6-.1,1.7,1.7,0,0,0-.7.1,1,1,0,0,0-.5.4,1.49,1.49,0,0,0-.3.7,4.1,4.1,0,0,0,0,1.8,1.63,1.63,0,0,0,.3.6,1,1,0,0,0,.5.4,1.27,1.27,0,0,0,.6.1,1.48,1.48,0,0,0,.7-.1,1,1,0,0,0,.5-.4c.1-.2.3-.3.3-.6a1.48,1.48,0,0,0,.1-.7Z" transform="translate(-5.15 -3.46)"/><path class="cls-2" d="M77.5,27.9a26.06,26.06,0,0,0-27.9-24A25.75,25.75,0,0,0,35,9.8a16.71,16.71,0,1,0-11.9,27c1.1-.1,2.1-.3,3.2-.5a26,26,0,0,0,51.2-8.4Z" transform="translate(-5.15 -3.46)"/><path class="cls-3" d="M66.2,28.7A14.77,14.77,0,0,0,50.4,15.1a15.25,15.25,0,0,0-3.7.8h0s-8.2,2.9-12.8,2A15.46,15.46,0,0,1,27,14.3h0a7.53,7.53,0,0,0-5.8-2,7.72,7.72,0,0,0,0,15.4h0c5.6.3,8.6.9,10.8,2.1s7.6,8.5,7.6,8.5h0a14.85,14.85,0,0,0,13.1,6.1A14.54,14.54,0,0,0,66.2,28.7Z" transform="translate(-5.15 -3.46)"/></svg>