<svg id="Layer_1" data-name="Layer 1" xmlns="http://www.w3.org/2000/svg" viewBox="0 0 193.84 58.58"><defs><style>.cls-1{fill:#424143;}.cls-2{fill:#005183;}.cls-3{fill:#3691c8;}</style></defs><path class="cls-1" d="M100.25,19.74v-.3a7.24,7.24,0,0,0-.9-3.7,3.69,3.69,0,0,0-6.3.6,13.83,13.83,0,0,0-1,6c0,2.6.4,4.6,1.3,5.8a4.17,4.17,0,0,0,3.7,1.9c1.6,0,3.5-.8,5.8-2.4a10.63,10.63,0,0,1,1.5,1.5,4.92,4.92,0,0,1,.9,1.8,12.6,12.6,0,0,1-4.1,2.6,12.73,12.73,0,0,1-4.9,1.1,9.45,9.45,0,0,1-4-.7,7.66,7.66,0,0,1-2.7-1.9,8.84,8.84,0,0,1-1.7-2.8,16.65,16.65,0,0,1-1.3-6.9c0-4.1.9-7.2,2.8-9.3a9,9,0,0,1,7-3.1,10.21,10.21,0,0,1,6.6,2,6.4,6.4,0,0,1,2.4,5.1c0,1.9-1,2.9-3,2.9A5,5,0,0,1,100.25,19.74Z" transform="translate(-0.01 0.04)"/><path class="cls-1" d="M114.45,29h-1.4l-1.5,5.1a11.85,11.85,0,0,1-2.3.2,5.48,5.48,0,0,1-2.4-.4l-.2-.3,7.7-23.2a24.7,24.7,0,0,1,3.1-.2,23.14,23.14,0,0,1,3,.2l7.5,23.2a6.05,6.05,0,0,1-2.7.7,3.54,3.54,0,0,1-2.3-.6,4.5,4.5,0,0,1-1.1-2.3l-.7-2.5h-1.5Zm-.3-4.1h5.4l-2.6-9.5h-.2c-.2,1.1-.8,3.2-1.7,6.3Z" transform="translate(-0.01 0.04)"/><path class="cls-1" d="M149.05,10.34l.2.2V34a14.68,14.68,0,0,1-3.1.3,31.06,31.06,0,0,1-3.2-.2l-5.7-12.6c-1-2.3-1.6-3.9-2-4.9h-.1c.3,3.3.4,6.6.4,10V34a16.11,16.11,0,0,1-2.5.2,14.85,14.85,0,0,1-2.4-.2V10.54a12.58,12.58,0,0,1,3-.3,31.06,31.06,0,0,1,3.2.2l5.6,12.6,2.2,5.2h.1c-.3-3.2-.4-6.5-.4-10v-4.8a3.12,3.12,0,0,1,.7-2.4,2.9,2.9,0,0,1,2.2-.7Z" transform="translate(-0.01 0.04)"/><path class="cls-1" d="M172.75,16.34a21.33,21.33,0,0,1,.8,6,21.33,21.33,0,0,1-.8,6,8.69,8.69,0,0,1-3.1,4.3,7.12,7.12,0,0,1-2.9,1.3,16,16,0,0,1-3.9.4c-1.4,0-4.1,0-8.1-.1l-.2-.2V10.84l.2-.2c2.6-.1,5.5-.1,8.5-.1a13.4,13.4,0,0,1,3.4.4,7.12,7.12,0,0,1,2.9,1.3A7.55,7.55,0,0,1,172.75,16.34Zm-12,13.9h2.7c3.2,0,4.7-2.6,4.7-7.9s-1.6-7.9-4.7-7.9H160v15.8Z" transform="translate(-0.01 0.04)"/><path class="cls-1" d="M175.55,32a6.1,6.1,0,0,1,.7-2.2,6,6,0,0,1,1.4-1.7,13.78,13.78,0,0,0,7,2.3,3.34,3.34,0,0,0,2.3-.7,2.28,2.28,0,0,0,.8-1.7c0-1.2-.8-2.1-2.3-2.8l-4.1-1.7c-3.3-1.4-4.9-3.5-4.9-6.3a6.28,6.28,0,0,1,2.4-5.1,9.73,9.73,0,0,1,6.3-2,17,17,0,0,1,7.7,2,6,6,0,0,1-1.8,4,14.92,14.92,0,0,0-6.2-1.7,3.07,3.07,0,0,0-2.2.7,2.07,2.07,0,0,0-.8,1.5c0,.9.7,1.7,2.1,2.3l4.1,1.7a9.5,9.5,0,0,1,3.8,2.8,6.53,6.53,0,0,1,1.4,4,6.74,6.74,0,0,1-2.3,5.3c-1.6,1.4-3.8,2-6.7,2a15,15,0,0,1-4.5-.7A16.37,16.37,0,0,1,175.55,32Z" transform="translate(-0.01 0.04)"/><path class="cls-1" d="M193.15,43.54H86.45a.7.7,0,0,1,0-1.4h106.7a.7.7,0,0,1,0,1.4Z" transform="translate(-0.01 0.04)"/><path class="cls-1" d="M91.75,55.84a3.79,3.79,0,0,1-1.9.4,3.24,3.24,0,0,1-1.4-.3,2.52,2.52,0,0,1-1-.7,4.11,4.11,0,0,1-.7-1.1,3.18,3.18,0,0,1-.2-1.4,7.52,7.52,0,0,1,.2-1.5,3.54,3.54,0,0,1,.7-1.2,4.37,4.37,0,0,1,1.1-.8,3.36,3.36,0,0,1,1.5-.3,4.17,4.17,0,0,1,1.6.3v.7a3,3,0,0,0-1.6-.4,3.78,3.78,0,0,0-1.2.2,2.14,2.14,0,0,0-.9.7,9.12,9.12,0,0,0-.6,1,5.18,5.18,0,0,0-.2,1.3,3.75,3.75,0,0,0,.2,1.1,1.87,1.87,0,0,0,.5.9,1.56,1.56,0,0,0,.8.6,2.16,2.16,0,0,0,1.2.2,3.4,3.4,0,0,0,1.8-.4Z" transform="translate(-0.01 0.04)"/><path class="cls-1" d="M96,56.24a3.12,3.12,0,0,1-1-.2,3.47,3.47,0,0,1-.8-.5,2.3,2.3,0,0,1-.5-.8,3.09,3.09,0,0,1,0-2.2,2.1,2.1,0,0,1,1.3-1.3,3.78,3.78,0,0,1,1-.2,3.12,3.12,0,0,1,1,.2,1.84,1.84,0,0,1,.7.5,2.3,2.3,0,0,1,.5.8,3.09,3.09,0,0,1,0,2.2,2.1,2.1,0,0,1-1.3,1.3A2,2,0,0,1,96,56.24Zm0-4.7a1.51,1.51,0,0,0-.7.1,2.17,2.17,0,0,0-.6.4,1.64,1.64,0,0,0-.4.7,4.2,4.2,0,0,0,0,1.8.93.93,0,0,0,.4.6,1.28,1.28,0,0,0,.6.4,1.66,1.66,0,0,0,.7.1,1.51,1.51,0,0,0,.7-.1,2.17,2.17,0,0,0,.6-.4.89.89,0,0,0,.3-.7,2.74,2.74,0,0,0,.1-.9,2.56,2.56,0,0,0-.5-1.6A1.68,1.68,0,0,0,96,51.54Z" transform="translate(-0.01 0.04)"/><path class="cls-1" d="M106.65,56.14v-3a2,2,0,0,0-.1-.8.72.72,0,0,0-.2-.5,1.31,1.31,0,0,0-.4-.3,1.33,1.33,0,0,0-1,0,.78.78,0,0,0-.4.4c-.1.2-.2.3-.3.5a1.51,1.51,0,0,0-.1.7V56h-.6V53c0-1.1-.4-1.6-1.2-1.6a.74.74,0,0,0-.5.1.78.78,0,0,0-.4.4c-.1.2-.2.3-.3.5a1.51,1.51,0,0,0-.1.7V56h-.6V51h.6v.8h0a1.76,1.76,0,0,1,1.5-.9.87.87,0,0,1,.5.1c.2.1.3.1.4.2l.3.3a.76.76,0,0,1,.2.4,1.81,1.81,0,0,1,.7-.8,1.68,1.68,0,0,1,1-.3c1.1,0,1.7.7,1.7,2v3.1h-.7Z" transform="translate(-0.01 0.04)"/><path class="cls-1" d="M110.15,55.34v3.1h-.6v-7.3h.6v1h0a1.81,1.81,0,0,1,.7-.8A2,2,0,0,1,112,51a3.09,3.09,0,0,1,.9.2,1,1,0,0,1,.6.5,2,2,0,0,1,.4.8,3.07,3.07,0,0,1,.1,1,3.75,3.75,0,0,1-.2,1.1,2.76,2.76,0,0,1-1.2,1.5,3.09,3.09,0,0,1-.9.2A2.15,2.15,0,0,1,110.15,55.34Zm0-1.3a1.23,1.23,0,0,0,.1.6,2.29,2.29,0,0,0,.3.5,1,1,0,0,0,.5.4,1.23,1.23,0,0,0,.6.1,1.42,1.42,0,0,0,.7-.2,1.21,1.21,0,0,0,.5-.5,1.47,1.47,0,0,0,.3-.7,2.74,2.74,0,0,0,.1-.9,2,2,0,0,0-.1-.8l-.3-.6a1,1,0,0,0-.5-.4,1.23,1.23,0,0,0-.6-.1,1.51,1.51,0,0,0-.7.1,1,1,0,0,0-.5.4c-.1.2-.3.4-.3.6a1.66,1.66,0,0,0-.1.7Z" transform="translate(-0.01 0.04)"/><path class="cls-1" d="M116,56.14v-7.5h.6v7.5Z" transform="translate(-0.01 0.04)"/><path class="cls-1" d="M119.25,53.74a2,2,0,0,0,.1.8,3.36,3.36,0,0,0,.3.6,1,1,0,0,0,.5.4,1.51,1.51,0,0,0,.7.1,2.41,2.41,0,0,0,1.6-.6v.6a3.47,3.47,0,0,1-1.8.5,3.09,3.09,0,0,1-.9-.2,1.84,1.84,0,0,1-.7-.5,2,2,0,0,1-.4-.8,3.75,3.75,0,0,1-.2-1.1,3.12,3.12,0,0,1,.2-1,2.3,2.3,0,0,1,.5-.8,4.44,4.44,0,0,1,.7-.6,2.1,2.1,0,0,1,1.8,0,1.46,1.46,0,0,1,.6.5,2,2,0,0,1,.4.8,3.07,3.07,0,0,1,.1,1v.3Zm3-.6a1.6,1.6,0,0,0-.4-1.2,1.16,1.16,0,0,0-1-.4,1.23,1.23,0,0,0-.6.1c-.2.1-.3.2-.5.3a.84.84,0,0,0-.3.5,1.42,1.42,0,0,0-.2.7Z" transform="translate(-0.01 0.04)"/><path class="cls-1" d="M126.65,53.64l1.7,2.5h-.8l-1-1.7c0-.1-.1-.1-.1-.2s-.1-.1-.1-.2h0a.09.09,0,0,1-.1.1h0c0,.1-.1.1-.1.2l-1.1,1.7h-.7l1.7-2.5-1.6-2.6h.7l1,1.8a.3.3,0,0,1,.1.2c0,.1.1.1.1.2h0c0-.1.1-.1.1-.2s.1-.1.1-.2l1.1-1.8h.7Z" transform="translate(-0.01 0.04)"/><path class="cls-1" d="M130.25,49.84a.4.4,0,0,1,0-.8h.2a.09.09,0,0,1,.1.1h0l.1.1v.4a.09.09,0,0,1-.1.1h0l-.1.1Zm-.3,6.3v-5h.6v5Z" transform="translate(-0.01 0.04)"/><path class="cls-1" d="M135.05,56a1.94,1.94,0,0,1-.7.2c-.8,0-1.2-.5-1.2-1.4v-3.2h-.9V51h.9v-1.3l.6-.2V51h1.3v.6h-1.3v3.1a1.17,1.17,0,0,0,.2.7c.1.2.3.2.6.2a1.42,1.42,0,0,0,.6-.2V56Z" transform="translate(-0.01 0.04)"/><path class="cls-1" d="M138.25,57a2.29,2.29,0,0,1-.7,1.1,1.88,1.88,0,0,1-.9.4.87.87,0,0,1-.5-.1v-.6c.1,0,.1,0,.2.1h.2a.72.72,0,0,0,.5-.2.93.93,0,0,0,.4-.6l.4-1-1.9-5h.7l1.4,4c0,.1,0,.1.1.2s0,.1.1.2h0v-.2c0-.1,0-.1.1-.2l1.5-4h.7Z" transform="translate(-0.01 0.04)"/><path class="cls-1" d="M145.45,55.24c.1.1.2.1.3.2s.2.1.3.2.2.1.4.1h.3c.7,0,1.1-.3,1.1-.8a.37.37,0,0,0-.1-.3c-.1-.1-.1-.2-.2-.3s-.2-.1-.4-.2-.3-.1-.5-.2l-.6-.3a1.31,1.31,0,0,1-.4-.3.52.52,0,0,1-.2-.4.74.74,0,0,1-.1-.5,1.23,1.23,0,0,1,.1-.6.78.78,0,0,1,.4-.4l.6-.3a1.51,1.51,0,0,1,.7-.1,3.75,3.75,0,0,1,1.1.2v.7a2.8,2.8,0,0,0-1.2-.4c-.2,0-.3,0-.4.1s-.2.1-.3.2-.2.2-.2.3a.51.51,0,0,0,0,.6c0,.1.1.2.2.3s.2.1.3.2.3.1.5.2a3.36,3.36,0,0,1,.6.3,1.69,1.69,0,0,1,.7.7.74.74,0,0,1,.1.5,1.23,1.23,0,0,1-.1.6.78.78,0,0,1-.4.4l-.6.3a1.66,1.66,0,0,1-.7.1,2.79,2.79,0,0,1-1.3-.3v-.8Z" transform="translate(-0.01 0.04)"/><path class="cls-1" d="M150.85,49.84a.4.4,0,0,1,0-.8h.2a.09.09,0,0,1,.1.1h0l.1.1v.4a.09.09,0,0,1-.1.1h0l-.1.1Zm-.3,6.3v-5h.6v5Z" transform="translate(-0.01 0.04)"/><path class="cls-1" d="M159.75,56.14v-3a2,2,0,0,0-.1-.8.72.72,0,0,0-.2-.5,1.31,1.31,0,0,0-.4-.3.87.87,0,0,0-.5-.1.74.74,0,0,0-.5.1c-.1.1-.3.2-.4.4s-.2.3-.3.5a1.51,1.51,0,0,0-.1.7V56h-.6V53c0-1.1-.4-1.6-1.2-1.6a.74.74,0,0,0-.5.1.78.78,0,0,0-.4.4c-.1.2-.2.3-.3.5a1.51,1.51,0,0,0-.1.7V56h-.6V51h.6v.8h0a1.76,1.76,0,0,1,1.5-.9.87.87,0,0,1,.5.1c.2.1.3.1.4.2l.3.3a.76.76,0,0,1,.2.4,1.81,1.81,0,0,1,.7-.8,1.68,1.68,0,0,1,1-.3c1.1,0,1.7.7,1.7,2v3.1h-.7v.2Z" transform="translate(-0.01 0.04)"/><path class="cls-1" d="M163.25,55.34v3.1h-.6v-7.3h.6v1h0a1.81,1.81,0,0,1,.7-.8,2,2,0,0,1,1.1-.3,3.09,3.09,0,0,1,.9.2,1,1,0,0,1,.6.5,2,2,0,0,1,.4.8,3.07,3.07,0,0,1,.1,1,3.75,3.75,0,0,1-.2,1.1,2.76,2.76,0,0,1-1.2,1.5,3.09,3.09,0,0,1-.9.2,2.15,2.15,0,0,1-1.5-1Zm0-1.3a1.23,1.23,0,0,0,.1.6,2.29,2.29,0,0,0,.3.5,1,1,0,0,0,.5.4,1.23,1.23,0,0,0,.6.1,1.42,1.42,0,0,0,.7-.2,1.21,1.21,0,0,0,.5-.5,1.47,1.47,0,0,0,.3-.7,2.74,2.74,0,0,0,.1-.9,2,2,0,0,0-.1-.8l-.3-.6a1,1,0,0,0-.5-.4,1.23,1.23,0,0,0-.6-.1,1.51,1.51,0,0,0-.7.1,1,1,0,0,0-.5.4c-.1.2-.3.4-.3.6a1.66,1.66,0,0,0-.1.7Z" transform="translate(-0.01 0.04)"/><path class="cls-1" d="M169.15,56.14v-7.5h.6v7.5Z" transform="translate(-0.01 0.04)"/><path class="cls-1" d="M172.35,49.84a.4.4,0,0,1,0-.8h.2a.09.09,0,0,1,.1.1h0l.1.1v.4a.09.09,0,0,1-.1.1h0l-.1.1Zm-.3,6.3v-5h.6v5Z" transform="translate(-0.01 0.04)"/><path class="cls-1" d="M177.35,49.24a.74.74,0,0,0-.5-.1q-.9,0-.9,1.2v.8h1.3v.6H176v4.5h-.6v-4.5h-.9v-.6h.9v-.8a1.51,1.51,0,0,1,.1-.7,2.29,2.29,0,0,1,.3-.5.84.84,0,0,1,.5-.3,1.51,1.51,0,0,1,.7-.1,1.23,1.23,0,0,1,.6.1v.4Z" transform="translate(-0.01 0.04)"/><path class="cls-1" d="M179.05,49.84a.4.4,0,1,1,0-.8h.2a.09.09,0,0,1,.1.1h0l.1.1v.4a.09.09,0,0,1-.1.1h0l-.1.1Zm-.4,6.3v-5h.6v5Z" transform="translate(-0.01 0.04)"/><path class="cls-1" d="M182,53.74a2,2,0,0,0,.1.8,3.36,3.36,0,0,0,.3.6,1,1,0,0,0,.5.4,1.51,1.51,0,0,0,.7.1,2.41,2.41,0,0,0,1.6-.6v.6a3.47,3.47,0,0,1-1.8.5,3.09,3.09,0,0,1-.9-.2,1.84,1.84,0,0,1-.7-.5,2,2,0,0,1-.4-.8,3.75,3.75,0,0,1-.2-1.1,3.12,3.12,0,0,1,.2-1,2.3,2.3,0,0,1,.5-.8,4.44,4.44,0,0,1,.7-.6,2.1,2.1,0,0,1,1.8,0,1.46,1.46,0,0,1,.6.5,2,2,0,0,1,.4.8,3.07,3.07,0,0,1,.1,1v.3Zm3-.6a1.6,1.6,0,0,0-.4-1.2,1.16,1.16,0,0,0-1-.4,1.23,1.23,0,0,0-.6.1c-.2.1-.3.2-.5.3a.84.84,0,0,0-.3.5,1.42,1.42,0,0,0-.2.7Z" transform="translate(-0.01 0.04)"/><path class="cls-1" d="M191.05,56.14v-.9h0a1.58,1.58,0,0,1-.7.7,2,2,0,0,1-1.1.3,3.09,3.09,0,0,1-.9-.2,1.84,1.84,0,0,1-.7-.5,2,2,0,0,1-.4-.8,3.7,3.7,0,0,1-.1-1.1,3.75,3.75,0,0,1,.2-1.1,2.76,2.76,0,0,1,1.2-1.5,3.09,3.09,0,0,1,.9-.2,1.81,1.81,0,0,1,1.6.9h0v-3.2h.6V56h-.6Zm0-3a1.23,1.23,0,0,0-.1-.6,2.29,2.29,0,0,0-.3-.5.84.84,0,0,0-.5-.3,1.23,1.23,0,0,0-.6-.1,1.66,1.66,0,0,0-.7.1,1,1,0,0,0-.5.4,1.47,1.47,0,0,0-.3.7,4.2,4.2,0,0,0,0,1.8,1.69,1.69,0,0,0,.3.6,1,1,0,0,0,.5.4,1.23,1.23,0,0,0,.6.1,1.51,1.51,0,0,0,.7-.1,1,1,0,0,0,.5-.4c.1-.2.3-.3.3-.6a1.51,1.51,0,0,0,.1-.7Z" transform="translate(-0.01 0.04)"/><path class="cls-2" d="M72.35,24.44a26.06,26.06,0,0,0-27.9-24,25.75,25.75,0,0,0-14.6,5.9,16.71,16.71,0,1,0-11.9,27c1.1-.1,2.1-.3,3.2-.5a26,26,0,0,0,51.2-8.4Z" transform="translate(-0.01 0.04)"/><path class="cls-3" d="M61.05,25.24a14.77,14.77,0,0,0-15.8-13.6,15.19,15.19,0,0,0-3.7.8h0s-8.2,2.9-12.8,2a15.45,15.45,0,0,1-6.9-3.6h0a7.51,7.51,0,0,0-5.8-2,7.72,7.72,0,0,0,0,15.4h0c5.6.3,8.6.9,10.8,2.1s7.6,8.5,7.6,8.5h0a14.87,14.87,0,0,0,13.1,6.1,14.55,14.55,0,0,0,13.52-15.5C61.06,25.38,61.06,25.31,61.05,25.24Z" transform="translate(-0.01 0.04)"/></svg>