<svg id="Layer_1" data-name="Layer 1" xmlns="http://www.w3.org/2000/svg" viewBox="0 0 72.46 52.97"><defs><style>.cls-1{fill:#025284;}.cls-2{fill:#3991c9;}</style></defs><path class="cls-1" d="M86.29,47.82a26.06,26.06,0,0,0-27.9-24,25.65,25.65,0,0,0-14.6,5.9,16.71,16.71,0,1,0-11.9,27c1.1-.1,2.1-.3,3.2-.5a26,26,0,0,0,51.2-8.4Z" transform="translate(-13.95 -23.34)"/><path class="cls-2" d="M75,48.62A14.78,14.78,0,0,0,59.19,35a15.09,15.09,0,0,0-3.7.8h0s-8.2,2.9-12.8,2a15.4,15.4,0,0,1-6.9-3.6h0a7.51,7.51,0,0,0-5.8-2,7.72,7.72,0,0,0,0,15.4h0c5.6.3,8.6.9,10.8,2.1s7.6,8.5,7.6,8.5h0a14.85,14.85,0,0,0,13.1,6.1A14.54,14.54,0,0,0,75,48.82C75,48.75,75,48.69,75,48.62Z" transform="translate(-13.95 -23.34)"/></svg>