<svg xmlns="http://www.w3.org/2000/svg" viewBox="0 0 272.6 409.36"><defs><style>.cls-1{fill:#3791c9;}</style></defs><g id="Layer_2" data-name="Layer 2"><path class="cls-1" d="M297.68,508.69c-2.2-2.38-5-4.44-6.49-7.19Q236.11,402.32,181.29,303c-13.85-25.05-20.06-52-16.67-80.32,5.88-49.4,30.89-86.62,75.73-108.52,46.34-22.62,92.33-19.16,135.35,9,33.89,22.21,53.52,54.48,59.23,94.74,4.24,29.94-1.33,58.24-15.93,84.69q-54.9,99.5-110,198.87c-1.53,2.75-4.3,4.81-6.49,7.19ZM300.5,168c-36.8-.71-67.67,29.6-68.45,67.22-.78,37.24,29.42,68.36,67,69s68.4-29.46,69.05-67.38C368.75,199.47,338.59,168.74,300.5,168Z" transform="translate(-163.71 -99.33)"/></g></svg>