<svg id="Layer_1" data-name="Layer 1" xmlns="http://www.w3.org/2000/svg" viewBox="0 0 383.31 287.39"><defs><style>.cls-1{fill:#3791c9;}</style></defs><path class="cls-1" d="M107.61,414V237.32a17.47,17.47,0,0,1,2.27,1.07Q187.64,290.22,265.37,342c22,14.66,45.54,14.77,67.51.16q77.65-51.66,155.23-103.45c.76-.51,1.6-.91,2.75-1.57v2.7q0,84.75,0,169.51a24.6,24.6,0,0,1-.32,4.46c-3.4,18.33-17.5,30-36.39,30q-154.53,0-309.08,0c-1,0-2,0-3,0a35.46,35.46,0,0,1-33-25.29C108.59,417,108.09,415.49,107.61,414Z" transform="translate(-107.61 -156.47)"/><path class="cls-1" d="M107.61,186.42c2.47-5.37,4.2-11.24,7.54-16,6.48-9.23,16.09-13.49,27.29-13.85,7.1-.22,14.22-.05,21.33-.05q145.17,0,290.36,0c18.74,0,33,11.41,36.2,29.65,2.46,14.21-2.74,25.76-14.64,33.95C464,228.2,452.12,236,440.3,243.85L322.14,322.59c-16.41,10.94-29.33,11-45.63.09-48.93-32.63-97.77-65.39-146.87-97.76-10.47-6.9-19.15-14.56-22-27.27Z" transform="translate(-107.61 -156.47)"/></svg>