<svg id="Layer_1" data-name="Layer 1" xmlns="http://www.w3.org/2000/svg" viewBox="0 0 1279.98 64.08"><defs><style>.cls-1{fill:#3690c7;}</style></defs><path class="cls-1" d="M-589.89,71.94c12.65-1.76,25.31-3.48,38-5.29,22.86-3.29,45.81-5.74,68.81-7.83q58.9-5.35,118-7.3c38-1.31,75.94-2,113.92-1.32,30.63.56,61.27,1.46,91.86,2.94Q-94,56.31-29,63.08C8.16,66.9,45.18,71.93,82.24,76.59c23.72,3,47.56,5,71.34,7.5,28.27,2.93,56.62,4.7,85,6.62,16.92,1.14,33.89,1.68,50.85,2.38,41.29,1.69,82.59,2.09,123.9,1.69q47.2-.47,94.35-3.09,40.56-2.26,81-6c32.71-3.09,65.37-6.85,97.76-12.59a23.59,23.59,0,0,1,3.47-.12c0,12.81-.06,25.62.07,38.43,0,2.15-.41,2.95-2.57,2.52a10.16,10.16,0,0,0-2,0Q50,113.87-585.39,114c-3.75,0-4.69-.83-4.61-4.59C-589.72,96.9-589.89,84.42-589.89,71.94Z" transform="translate(590 -49.92)"/></svg>